HIERARCHY
ROOT mixamorig11:Hips
{
	OFFSET 0.000000 97.913940 0.000000
	CHANNELS 6 Xposition Yposition Zposition Xrotation Yrotation Zrotation
	JOINT mixamorig11:Spine
	{
		OFFSET 0.000000 9.589897 -0.403700
		CHANNELS 3 Xrotation Yrotation Zrotation
		JOINT mixamorig11:Spine1
		{
			OFFSET 0.000000 11.188187 -0.470998
			CHANNELS 3 Xrotation Yrotation Zrotation
			JOINT mixamorig11:Spine2
			{
				OFFSET 0.000000 12.786491 -0.538282
				CHANNELS 3 Xrotation Yrotation Zrotation
				JOINT mixamorig11:Neck
				{
					OFFSET 0.000000 14.384857 -0.605570
					CHANNELS 3 Xrotation Yrotation Zrotation
					JOINT mixamorig11:Head
					{
						OFFSET 0.000000 7.181595 2.224900
						CHANNELS 3 Xrotation Yrotation Zrotation
						JOINT mixamorig11:HeadTop_End
						{
							OFFSET 0.000000 22.308105 6.911201
							CHANNELS 3 Xrotation Yrotation Zrotation
							End Site
							{
								OFFSET 0.000000 23.354141 0.000000
							}
						}
					}
				}
				JOINT mixamorig11:LeftShoulder
				{
					OFFSET 5.882500 12.511856 -0.620804
					CHANNELS 3 Xrotation Yrotation Zrotation
					JOINT mixamorig11:LeftArm
					{
						OFFSET 11.646852 -3.702408 -0.030513
						CHANNELS 3 Xrotation Yrotation Zrotation
						JOINT mixamorig11:LeftForeArm
						{
							OFFSET 25.786604 0.000000 0.000001
							CHANNELS 3 Xrotation Yrotation Zrotation
							JOINT mixamorig11:LeftHand
							{
								OFFSET 22.541985 0.000000 0.000000
								CHANNELS 3 Xrotation Yrotation Zrotation
								JOINT mixamorig11:LeftHandThumb1
								{
									OFFSET 2.854927 -1.122772 2.480797
									CHANNELS 3 Xrotation Yrotation Zrotation
									JOINT mixamorig11:LeftHandThumb2
									{
										OFFSET 2.444778 -1.411499 1.411493
										CHANNELS 3 Xrotation Yrotation Zrotation
										JOINT mixamorig11:LeftHandThumb3
										{
											OFFSET 2.491409 -1.438416 1.438416
											CHANNELS 3 Xrotation Yrotation Zrotation
											JOINT mixamorig11:LeftHandThumb4
											{
												OFFSET 2.062660 -1.190872 1.190876
												CHANNELS 3 Xrotation Yrotation Zrotation
												End Site
												{
													OFFSET 1.867668 -1.168579 1.495700
												}
											}
										}
									}
								}
								JOINT mixamorig11:LeftHandIndex1
								{
									OFFSET 8.723740 -0.306396 2.303487
									CHANNELS 3 Xrotation Yrotation Zrotation
									JOINT mixamorig11:LeftHandIndex2
									{
										OFFSET 3.176529 0.000000 0.000000
										CHANNELS 3 Xrotation Yrotation Zrotation
										JOINT mixamorig11:LeftHandIndex3
										{
											OFFSET 2.966606 0.000000 0.000000
											CHANNELS 3 Xrotation Yrotation Zrotation
											JOINT mixamorig11:LeftHandIndex4
											{
												OFFSET 2.535217 0.000000 0.000000
												CHANNELS 3 Xrotation Yrotation Zrotation
												End Site
												{
													OFFSET 2.535202 -0.000061 -0.009100
												}
											}
										}
									}
								}
								JOINT mixamorig11:LeftHandMiddle1
								{
									OFFSET 8.847908 0.000000 0.000000
									CHANNELS 3 Xrotation Yrotation Zrotation
									JOINT mixamorig11:LeftHandMiddle2
									{
										OFFSET 3.142609 0.000000 0.000000
										CHANNELS 3 Xrotation Yrotation Zrotation
										JOINT mixamorig11:LeftHandMiddle3
										{
											OFFSET 3.136101 0.000000 0.000000
											CHANNELS 3 Xrotation Yrotation Zrotation
											JOINT mixamorig11:LeftHandMiddle4
											{
												OFFSET 2.732903 0.000000 0.000000
												CHANNELS 3 Xrotation Yrotation Zrotation
												End Site
												{
													OFFSET 2.732910 -0.000031 -0.004200
												}
											}
										}
									}
								}
								JOINT mixamorig11:LeftHandRing1
								{
									OFFSET 8.684868 -0.025436 -1.994421
									CHANNELS 3 Xrotation Yrotation Zrotation
									JOINT mixamorig11:LeftHandRing2
									{
										OFFSET 2.853500 0.000000 0.000000
										CHANNELS 3 Xrotation Yrotation Zrotation
										JOINT mixamorig11:LeftHandRing3
										{
											OFFSET 2.630104 0.000000 0.000000
											CHANNELS 3 Xrotation Yrotation Zrotation
											JOINT mixamorig11:LeftHandRing4
											{
												OFFSET 2.352501 0.000000 0.000000
												CHANNELS 3 Xrotation Yrotation Zrotation
												End Site
												{
													OFFSET 2.352493 -0.000015 -0.000900
												}
											}
										}
									}
								}
								JOINT mixamorig11:LeftHandPinky1
								{
									OFFSET 7.884079 -0.299316 -3.993881
									CHANNELS 3 Xrotation Yrotation Zrotation
									JOINT mixamorig11:LeftHandPinky2
									{
										OFFSET 2.528603 0.000000 0.000000
										CHANNELS 3 Xrotation Yrotation Zrotation
										JOINT mixamorig11:LeftHandPinky3
										{
											OFFSET 2.056900 0.000000 0.000000
											CHANNELS 3 Xrotation Yrotation Zrotation
											JOINT mixamorig11:LeftHandPinky4
											{
												OFFSET 1.859703 0.000000 0.000000
												CHANNELS 3 Xrotation Yrotation Zrotation
												End Site
												{
													OFFSET 1.859695 0.000000 -0.000600
												}
											}
										}
									}
								}
							}
						}
					}
				}
				JOINT mixamorig11:RightShoulder
				{
					OFFSET -5.882500 12.511841 -0.590276
					CHANNELS 3 Xrotation Yrotation Zrotation
					JOINT mixamorig11:RightArm
					{
						OFFSET -11.646856 -3.702393 0.030525
						CHANNELS 3 Xrotation Yrotation Zrotation
						JOINT mixamorig11:RightForeArm
						{
							OFFSET -25.792994 0.000000 -0.000000
							CHANNELS 3 Xrotation Yrotation Zrotation
							JOINT mixamorig11:RightHand
							{
								OFFSET -22.543793 0.000000 -0.000000
								CHANNELS 3 Xrotation Yrotation Zrotation
								JOINT mixamorig11:RightHandThumb1
								{
									OFFSET -3.106415 -1.313461 2.553785
									CHANNELS 3 Xrotation Yrotation Zrotation
									JOINT mixamorig11:RightHandThumb2
									{
										OFFSET -2.621536 -1.513550 1.513545
										CHANNELS 3 Xrotation Yrotation Zrotation
										JOINT mixamorig11:RightHandThumb3
										{
											OFFSET -2.337761 -1.349701 1.349705
											CHANNELS 3 Xrotation Yrotation Zrotation
											JOINT mixamorig11:RightHandThumb4
											{
												OFFSET -1.826759 -1.054688 1.054681
												CHANNELS 3 Xrotation Yrotation Zrotation
												End Site
												{
													OFFSET -1.608208 -1.027100 1.385819
												}
											}
										}
									}
								}
								JOINT mixamorig11:RightHandIndex1
								{
									OFFSET -9.030678 -0.249451 2.240086
									CHANNELS 3 Xrotation Yrotation Zrotation
									JOINT mixamorig11:RightHandIndex2
									{
										OFFSET -3.035309 0.000000 0.000000
										CHANNELS 3 Xrotation Yrotation Zrotation
										JOINT mixamorig11:RightHandIndex3
										{
											OFFSET -2.861298 0.000000 0.000000
											CHANNELS 3 Xrotation Yrotation Zrotation
											JOINT mixamorig11:RightHandIndex4
											{
												OFFSET -2.413208 0.000000 0.000000
												CHANNELS 3 Xrotation Yrotation Zrotation
												End Site
												{
													OFFSET -2.413200 0.000000 -0.005100
												}
											}
										}
									}
								}
								JOINT mixamorig11:RightHandMiddle1
								{
									OFFSET -8.867577 0.000000 0.000000
									CHANNELS 3 Xrotation Yrotation Zrotation
									JOINT mixamorig11:RightHandMiddle2
									{
										OFFSET -3.132004 0.000000 0.000000
										CHANNELS 3 Xrotation Yrotation Zrotation
										JOINT mixamorig11:RightHandMiddle3
										{
											OFFSET -3.214699 0.000000 0.000000
											CHANNELS 3 Xrotation Yrotation Zrotation
											JOINT mixamorig11:RightHandMiddle4
											{
												OFFSET -2.609901 0.000000 0.000000
												CHANNELS 3 Xrotation Yrotation Zrotation
												End Site
												{
													OFFSET -2.609894 0.000000 -0.000200
												}
											}
										}
									}
								}
								JOINT mixamorig11:RightHandRing1
								{
									OFFSET -8.687225 0.093399 -2.120879
									CHANNELS 3 Xrotation Yrotation Zrotation
									JOINT mixamorig11:RightHandRing2
									{
										OFFSET -2.821899 0.000000 0.000000
										CHANNELS 3 Xrotation Yrotation Zrotation
										JOINT mixamorig11:RightHandRing3
										{
											OFFSET -2.653198 0.000000 0.000000
											CHANNELS 3 Xrotation Yrotation Zrotation
											JOINT mixamorig11:RightHandRing4
											{
												OFFSET -2.368797 0.000000 0.000000
												CHANNELS 3 Xrotation Yrotation Zrotation
												End Site
												{
													OFFSET -2.368805 0.000000 -0.000600
												}
											}
										}
									}
								}
								JOINT mixamorig11:RightHandPinky1
								{
									OFFSET -7.738640 -0.283188 -3.996854
									CHANNELS 3 Xrotation Yrotation Zrotation
									JOINT mixamorig11:RightHandPinky2
									{
										OFFSET -2.562599 0.000000 0.000000
										CHANNELS 3 Xrotation Yrotation Zrotation
										JOINT mixamorig11:RightHandPinky3
										{
											OFFSET -2.114204 0.000000 0.000000
											CHANNELS 3 Xrotation Yrotation Zrotation
											JOINT mixamorig11:RightHandPinky4
											{
												OFFSET -1.894402 0.000000 0.000000
												CHANNELS 3 Xrotation Yrotation Zrotation
												End Site
												{
													OFFSET -1.894394 0.000000 0.000200
												}
											}
										}
									}
								}
							}
						}
					}
				}
			}
		}
	}
	JOINT mixamorig11:LeftUpLeg
	{
		OFFSET 9.775500 -5.335800 -0.515100
		CHANNELS 3 Xrotation Yrotation Zrotation
		JOINT mixamorig11:LeftLeg
		{
			OFFSET -0.162879 -44.134300 -2.074069
			CHANNELS 3 Xrotation Yrotation Zrotation
			JOINT mixamorig11:LeftFoot
			{
				OFFSET 0.162886 -32.107239 -4.534632
				CHANNELS 3 Xrotation Yrotation Zrotation
				JOINT mixamorig11:LeftToeBase
				{
					OFFSET 1.295932 -15.879209 10.953496
					CHANNELS 3 Xrotation Yrotation Zrotation
					JOINT mixamorig11:LeftToe_End
					{
						OFFSET 0.672109 0.076157 4.944448
						CHANNELS 3 Xrotation Yrotation Zrotation
						End Site
						{
							OFFSET 0.672109 0.076157 4.944448
						}
					}
				}
			}
		}
	}
	JOINT mixamorig11:RightUpLeg
	{
		OFFSET -9.775500 -5.335800 -0.335300
		CHANNELS 3 Xrotation Yrotation Zrotation
		JOINT mixamorig11:RightLeg
		{
			OFFSET 0.093828 -44.134544 -2.322256
			CHANNELS 3 Xrotation Yrotation Zrotation
			JOINT mixamorig11:RightFoot
			{
				OFFSET -0.093820 -32.099487 -4.466276
				CHANNELS 3 Xrotation Yrotation Zrotation
				JOINT mixamorig11:RightToeBase
				{
					OFFSET -1.415545 -15.880081 11.007255
					CHANNELS 3 Xrotation Yrotation Zrotation
					JOINT mixamorig11:RightToe_End
					{
						OFFSET -0.672140 0.075555 4.958078
						CHANNELS 3 Xrotation Yrotation Zrotation
						End Site
						{
							OFFSET -0.672140 0.075555 4.958078
						}
					}
				}
			}
		}
	}
}
MOTION
Frames: 4
Frame Time: 0.033333
214.311447 76.654305 28.465969 -2.374998 5.768269 -159.328916 6.859057 -1.620151 -9.228211 0.772361 -0.053496 -0.772958 0.772093 -0.025497 -0.779456 0.902543 0.646436 3.173499 8.535427 1.356879 -0.465194 -0.000001 0.000000 0.000000 6.690666 2.666136 1.635238 -111.509532 7.614408 -32.203737 -0.000004 -98.965029 -0.000042 58.372313 0.701349 74.486239 -5.552753 -7.551859 18.714638 3.712973 4.154821 3.111425 -15.226816 -16.684371 9.533101 -0.000001 0.000003 -0.000002 0.528984 -14.384660 -2.991637 0.041064 0.693190 -6.780482 0.051156 0.773370 -7.569339 0.000001 0.000001 -0.000001 0.020224 -0.774904 -0.953836 0.119375 1.177849 -11.574128 0.000057 -0.025859 0.252235 -0.000001 0.000000 0.000001 0.300001 9.706151 -1.500832 0.031056 0.603139 -5.896243 0.001595 0.136831 -1.335327 0.000001 0.000000 -0.000000 -11.642292 21.556268 3.244103 0.048239 0.751127 -7.350362 0.040761 0.690647 -6.755495 0.000002 -0.000000 0.000000 -4.329757 -17.227148 -27.623981 -98.178649 -13.393223 27.903537 0.000062 94.520604 -0.000088 13.945225 -5.748660 -88.111892 -6.133781 8.834073 -18.033728 4.829361 -7.494548 -4.156491 -12.128299 9.497880 -12.465148 -0.000000 0.000000 0.000003 1.992876 12.707849 -0.846226 0.093967 -0.931804 11.516646 0.093969 -0.931788 11.516661 -0.000000 0.000000 0.000001 0.132471 1.167398 -1.290096 0.156938 -1.200021 14.900707 0.002642 0.157036 -1.928180 -0.000000 0.000000 0.000001 0.081497 -8.841402 0.026942 0.052404 -0.697384 8.593402 0.013541 -0.355311 4.365971 -0.000001 0.000000 0.000000 -2.275160 -22.441478 -3.663012 0.076568 -0.841897 10.392492 0.076569 -0.841889 10.392486 0.000000 -0.000002 -0.000000 -62.916185 -19.400802 61.995230 28.037568 10.803057 7.607752 -16.003318 23.800426 7.096415 0.115112 -0.000015 -0.000004 0.000001 -0.000001 -0.000000 -83.278939 -1.322790 -42.526564 29.020442 -7.782220 -11.348279 -9.077847 -8.625567 13.543702 -3.617649 -0.000013 -0.000022 0.000002 -0.000001 -0.000001 
215.708206 75.405586 27.030489 -3.207222 10.214901 -165.766888 8.755439 1.273601 -5.017708 0.459077 0.553558 -0.463460 0.455559 0.559588 -0.465067 0.779869 0.593419 3.342422 9.180664 1.302553 -0.097410 -0.000002 0.000000 -0.000000 6.543959 3.858870 1.457373 -112.281398 10.166022 -34.084188 0.000028 -100.890145 -0.000043 59.517982 -1.605358 74.333905 -5.552542 -7.551601 18.713870 3.713877 4.154942 3.108966 -15.226908 -16.684694 9.533001 0.000001 0.000003 -0.000000 0.529016 -14.384839 -2.991469 0.041072 0.693324 -6.781770 0.051210 0.773741 -7.572942 0.000001 -0.000004 -0.000001 0.020224 -0.775597 -0.953647 0.119420 1.178083 -11.576102 0.000057 -0.025610 0.249793 0.000001 0.000001 -0.000002 0.300038 9.706325 -1.501081 0.031076 0.603243 -5.897447 0.001596 0.137101 -1.338096 0.000001 0.000001 0.000001 -11.643280 21.556318 3.244940 0.048269 0.751282 -7.351851 0.040796 0.691005 -6.759131 -0.000002 -0.000000 0.000002 -2.772931 -15.202867 -23.036669 -97.951340 -11.521723 26.367300 0.000053 98.590106 -0.000070 13.518403 -8.084150 -88.774749 -6.006340 8.752996 -17.858438 4.856217 -7.564494 -4.166059 -12.092210 9.432630 -12.487719 0.000001 0.000002 0.000003 1.974670 12.624811 -0.847282 0.096801 -0.945568 11.689635 0.096799 -0.945599 11.689659 0.000000 0.000001 0.000001 0.125295 1.163434 -1.168236 0.159032 -1.207891 15.000518 0.002370 0.148872 -1.827794 -0.000000 0.000000 0.000004 0.105055 -8.813051 0.238018 0.054055 -0.708239 8.728190 0.014387 -0.366209 4.500153 -0.000000 0.000000 0.000001 -2.207295 -22.392755 -3.358122 0.078592 -0.852853 10.529165 0.078590 -0.852845 10.529210 0.000001 -0.000001 0.000002 -60.960217 -17.771288 58.893497 32.333989 10.888179 8.187488 -16.454718 24.740265 6.542207 0.831071 0.000019 0.000003 0.000001 0.000001 -0.000001 -90.231122 4.887588 -42.920297 26.689290 -7.202815 -11.766019 -13.640737 -12.852801 9.395747 1.928467 -0.000000 0.000008 -0.000003 0.000000 0.000001 
216.971115 75.296867 26.194834 -2.459313 13.976857 -172.480978 10.306002 3.014955 -0.432847 0.608095 0.766909 0.089053 0.610219 0.761128 0.086516 0.652257 0.816450 2.209540 9.278187 1.264191 0.270165 0.000002 -0.000000 0.000001 6.038552 6.434228 1.631906 -113.127166 12.719017 -34.745763 0.000052 -101.302955 -0.000008 59.990180 -3.671159 74.351001 -5.554666 -7.553090 18.717614 3.714626 4.155190 3.105988 -15.226995 -16.685032 9.532886 -0.000002 0.000001 -0.000000 0.529042 -14.385003 -2.991293 0.041074 0.693308 -6.781738 0.051215 0.773782 -7.573144 0.000001 -0.000003 -0.000001 0.020230 -0.776059 -0.953427 0.119418 1.178071 -11.576153 0.000055 -0.025594 0.249675 -0.000000 -0.000002 -0.000002 0.300016 9.706406 -1.500924 0.031073 0.603254 -5.897421 0.001601 0.137116 -1.338196 0.000000 0.000001 -0.000000 -11.644047 21.556436 3.245759 0.048271 0.751277 -7.351825 0.040802 0.691025 -6.759280 0.000001 -0.000001 0.000001 0.586862 -12.571502 -20.151305 -101.226388 -9.508197 25.698577 0.000050 100.425262 -0.000070 14.102351 -9.699251 -88.822075 -6.005732 8.752426 -17.854251 4.858961 -7.564907 -4.168811 -12.088280 9.431722 -12.486604 -0.000001 0.000000 0.000003 1.972238 12.623886 -0.847500 0.096842 -0.945767 11.692019 0.096840 -0.945781 11.692002 -0.000000 -0.000002 0.000000 0.125271 1.166732 -1.166441 0.159059 -1.207990 15.001790 0.002372 0.148759 -1.826408 -0.000000 -0.000000 0.000002 0.105413 -8.812425 0.241230 0.054076 -0.708401 8.730187 0.014397 -0.366371 4.501990 -0.000000 0.000000 0.000001 -2.212591 -22.391619 -3.355919 0.078613 -0.852992 10.531049 0.078617 -0.852985 10.531069 0.000000 0.000000 -0.000001 -59.308739 -15.744476 54.561785 34.204068 10.972036 8.656264 -13.473232 26.801101 6.759162 1.445310 0.000007 -0.000004 0.000000 0.000001 0.000001 -97.293675 11.271875 -43.436854 24.936546 -6.173691 -11.706439 -17.241223 -13.858698 6.374837 0.853534 0.000018 0.000011 -0.000000 0.000000 -0.000001 
218.260208 75.938652 25.803209 -0.758746 17.271342 -179.797285 11.627419 4.672433 4.450441 0.801091 0.886433 0.653554 0.807113 0.873511 0.650956 0.666775 0.977168 1.340004 9.046465 1.198231 0.937275 0.000001 0.000000 -0.000000 5.126515 8.828385 2.430398 -113.867204 14.381556 -34.924198 0.000028 -100.491740 -0.000035 60.633147 -5.614660 74.124000 -5.552333 -7.552095 18.715412 3.715310 4.156334 3.102888 -15.226428 -16.682910 9.533604 -0.000002 0.000001 -0.000000 0.528824 -14.383965 -2.992473 0.041007 0.692673 -6.775408 0.050963 0.771944 -7.555042 0.000000 -0.000005 -0.000002 0.020131 -0.776173 -0.955179 0.119221 1.177068 -11.566311 0.000053 -0.026813 0.261792 0.000000 -0.000002 -0.000001 0.299964 9.705496 -1.500769 0.031008 0.602658 -5.891449 0.001573 0.135721 -1.324428 0.000000 -0.000000 0.000001 -11.643149 21.555572 3.242247 0.048173 0.750542 -7.344494 0.040588 0.689183 -6.741218 0.000001 -0.000001 0.000002 4.296878 -9.683764 -19.171091 -105.070070 -8.355799 24.877839 -0.000024 100.952771 -0.000004 14.891783 -10.728859 -88.591358 -6.017756 8.757298 -17.864797 4.859671 -7.559344 -4.170684 -12.087152 9.436335 -12.483481 0.000000 0.000004 -0.000001 1.971368 12.630586 -0.847462 0.096633 -0.944790 11.679689 0.096637 -0.944787 11.679681 0.000000 0.000000 -0.000000 0.125855 1.170654 -1.174764 0.158897 -1.207380 14.994186 0.002398 0.149335 -1.833561 -0.000001 -0.000000 0.000000 0.103745 -8.813320 0.226381 0.053969 -0.707677 8.721246 0.014335 -0.365583 4.492446 -0.000000 0.000000 0.000001 -2.223424 -22.393904 -3.379679 0.078470 -0.852230 10.521322 0.078473 -0.852206 10.521329 0.000001 -0.000003 0.000001 -57.695803 -14.257285 49.784258 35.543915 11.011225 8.568996 -8.202492 29.277299 5.285665 2.068413 -0.000011 0.000004 -0.000003 -0.000000 0.000000 -102.532484 15.048476 -45.059673 18.999360 -4.747310 -10.262813 -16.089153 -11.746945 8.105153 -3.176203 0.000024 0.000001 -0.000000 0.000004 -0.000001 
